<svg width="70" height="66" viewBox="0 0 70 66" fill="none" xmlns="http://www.w3.org/2000/svg">
<path d="M70.0004 17.833C69.9952 13.3248 66.3419 9.67151 61.8337 9.66637H26.8337C26.1174 9.66382 25.4042 9.7616 24.715 9.95687C24.2787 10.0619 12.7543 14.4065 5.92351 16.986H5.91418C4.58282 17.3576 3.37128 18.0697 2.39901 19.0522C0.854568 20.5782 -0.0100599 22.6619 0.000343688 24.833C0.00228033 27.7033 1.5121 30.3614 3.97634 31.833C1.51313 33.3057 0.00367491 35.9632 0.000343688 38.833C0.00490218 41.7041 1.51673 44.3618 3.98218 45.833C0.827047 47.7135 -0.682475 51.4705 0.294487 55.0112C1.27145 58.5519 4.494 61.0033 8.16701 60.9997H43.167C44.374 60.9987 45.5655 60.7276 46.6542 60.2064C46.6627 60.2069 46.6713 60.2069 46.6799 60.2064L65.4503 53.1562C68.131 51.8356 69.8737 49.1535 69.9913 46.1676C70.1088 43.1816 68.5824 40.3708 66.0138 38.8435C66.596 38.5061 67.1295 38.0908 67.5993 37.6092C69.1435 36.0848 70.0089 34.0029 70.0004 31.833C69.9901 28.9662 68.4811 26.3137 66.022 24.84C66.6016 24.5028 67.133 24.0888 67.6017 23.6092C69.145 22.0844 70.0095 20.0025 70.0004 17.833ZM25.3578 12.1992C25.8382 12.0649 26.3349 11.9978 26.8337 11.9997H61.8337C65.0537 12.0036 67.6632 14.613 67.667 17.833C67.6742 19.3813 67.0572 20.8671 65.9555 21.9549C65.5591 22.3674 65.0951 22.7091 64.5835 22.9652C64.5205 22.999 64.4669 23.0305 64.4073 23.0609C62.8335 23.6442 60.0627 24.6849 55.7682 26.2972L50.5835 28.2444C51.749 25.7166 51.5458 22.7692 50.0444 20.4253C48.543 18.0814 45.9505 16.6645 43.167 16.6664H13.3843C19.1932 14.4789 24.883 12.3497 25.3578 12.1992ZM2.33368 24.833C2.32702 23.282 2.94617 21.7939 4.05101 20.7054C4.7562 19.9894 5.64055 19.4757 6.61184 19.2179C6.64101 19.2085 6.67484 19.198 6.70868 19.1852C7.18471 19.0605 7.67492 18.9981 8.16701 18.9997H43.167C46.3871 19.0036 48.9965 21.613 49.0003 24.833C48.9919 27.0157 47.7738 29.0137 45.8375 30.0212C45.8034 30.0343 45.7699 30.0491 45.7372 30.0655C44.9394 30.4646 44.059 30.6704 43.167 30.6664H8.16701C4.94695 30.6625 2.33753 28.0531 2.33368 24.833ZM2.33368 38.833C2.33946 35.6138 4.94775 33.0055 8.16701 32.9997H43.167C46.3871 33.0036 48.9965 35.613 49.0003 38.833C48.9919 41.0157 47.7738 43.0137 45.8375 44.0212C45.8034 44.0343 45.7699 44.0491 45.7372 44.0655C44.9394 44.4646 44.059 44.6704 43.167 44.6664H8.16701C4.94695 44.6625 2.33753 42.0531 2.33368 38.833ZM8.16701 58.6664C4.94535 58.6664 2.33368 56.0547 2.33368 52.833C2.33368 49.6114 4.94535 46.9997 8.16701 46.9997H43.167C46.3887 46.9997 49.0003 49.6114 49.0003 52.833C49.0003 56.0547 46.3887 58.6664 43.167 58.6664H8.16701ZM67.667 45.833C67.6741 47.381 67.0576 48.8666 65.9567 49.9549C65.5372 50.3796 65.0553 50.7376 64.5275 51.0165L50.5753 56.249C52.3139 52.5128 50.9795 48.0667 47.4708 45.9054L62.8708 40.128C65.6376 40.6217 67.656 43.0226 67.667 45.833ZM67.667 31.833C67.6742 33.3813 67.0572 34.8671 65.9555 35.9549C65.5591 36.3674 65.0951 36.7091 64.5835 36.9652C64.5193 37.0002 64.4587 37.0317 64.405 37.062L50.5823 42.2455C52.3102 38.508 50.9744 34.0687 47.4708 31.9054L56.5837 28.4824C59.246 27.4825 61.3145 26.7055 62.8837 26.1187C65.6456 26.6241 67.6556 29.0253 67.667 31.833Z" fill="white"/>
<path d="M45.5006 24.833C45.5006 24.1887 44.9783 23.6663 44.3339 23.6663H7.00059C6.35626 23.6663 5.83392 24.1887 5.83392 24.833C5.83392 25.4773 6.35626 25.9997 7.00059 25.9997H44.3339C44.9783 25.9997 45.5006 25.4773 45.5006 24.833Z" fill="white"/>
<path d="M45.5006 38.8331C45.5006 38.1888 44.9783 37.6664 44.3339 37.6664H7.00059C6.35626 37.6664 5.83392 38.1888 5.83392 38.8331C5.83392 39.4774 6.35626 39.9997 7.00059 39.9997H44.3339C44.9783 39.9997 45.5006 39.4774 45.5006 38.8331Z" fill="white"/>
<path d="M44.3339 51.6665H7.00059C6.35626 51.6665 5.83392 52.1888 5.83392 52.8332C5.83392 53.4775 6.35626 53.9998 7.00059 53.9998H44.3339C44.9783 53.9998 45.5006 53.4775 45.5006 52.8332C45.5006 52.1888 44.9783 51.6665 44.3339 51.6665Z" fill="white"/>
<path d="M11.667 0.333191C11.0227 0.333191 10.5004 0.855525 10.5004 1.49986V3.83319C10.5004 4.47752 11.0227 4.99986 11.667 4.99986C12.3114 4.99986 12.8337 4.47752 12.8337 3.83319V1.49986C12.8337 0.855525 12.3114 0.333191 11.667 0.333191Z" fill="white"/>
<path d="M10.5004 10.8334C10.5004 11.4777 11.0227 12.0001 11.667 12.0001C12.3114 12.0001 12.8337 11.4777 12.8337 10.8334V8.50004C12.8337 7.85571 12.3114 7.33337 11.667 7.33337C11.0227 7.33337 10.5004 7.85571 10.5004 8.50004V10.8334Z" fill="white"/>
<path d="M9.33392 4.99982H7.00059C6.35626 4.99982 5.83392 5.52215 5.83392 6.16649C5.83392 6.81082 6.35626 7.33316 7.00059 7.33316H9.33392C9.97825 7.33316 10.5006 6.81082 10.5006 6.16649C10.5006 5.52215 9.97825 4.99982 9.33392 4.99982Z" fill="white"/>
<path d="M14.0005 7.33316H16.3338C16.9781 7.33316 17.5005 6.81082 17.5005 6.16649C17.5005 5.52215 16.9781 4.99982 16.3338 4.99982H14.0005C13.3561 4.99982 12.8338 5.52215 12.8338 6.16649C12.8338 6.81082 13.3561 7.33316 14.0005 7.33316Z" fill="white"/>
<path d="M67.9084 61.9253C67.4506 61.4831 66.7229 61.4895 66.2729 61.9395C65.8229 62.3895 65.8166 63.1172 66.2587 63.5749L68.0087 65.325C68.4665 65.7671 69.1941 65.7608 69.6442 65.3107C70.0942 64.8607 70.1005 64.1331 69.6584 63.6753L67.9084 61.9253Z" fill="white"/>
<path d="M62.759 60.0748C63.2167 60.5169 63.9444 60.5106 64.3944 60.0606C64.8444 59.6105 64.8508 58.8829 64.4086 58.4251L62.6586 56.6751C62.2008 56.233 61.4732 56.2393 61.0232 56.6893C60.5731 57.1393 60.5668 57.867 61.009 58.3248L62.759 60.0748Z" fill="white"/>
<path d="M61.0088 65.3249C61.4643 65.7804 62.2028 65.7804 62.6584 65.3249L64.4084 63.5749C64.8506 63.1172 64.8442 62.3895 64.3942 61.9395C63.9442 61.4895 63.2165 61.4831 62.7588 61.9253L61.0088 63.6753C60.5533 64.1309 60.5533 64.8694 61.0088 65.3249Z" fill="white"/>
<path d="M68.0086 56.6751L66.2586 58.4251C65.9553 58.718 65.8337 59.1518 65.9405 59.5597C66.0472 59.9676 66.3658 60.2861 66.7737 60.3929C67.1816 60.4997 67.6153 60.378 67.9083 60.0748L69.6583 58.3248C70.1004 57.867 70.0941 57.1393 69.644 56.6893C69.194 56.2393 68.4664 56.233 68.0086 56.6751Z" fill="white"/>
</svg>
