<svg width="61" height="70" viewBox="0 0 61 70" fill="none" xmlns="http://www.w3.org/2000/svg">
<path d="M59.5002 0H12.8336C12.1893 0 11.6669 0.522375 11.6669 1.16667V12.8333C11.6707 16.0533 14.2802 18.6629 17.5002 18.6667H22.1669V22.1667H21.0002C21.0014 21.5495 20.5218 21.0382 19.9059 21L1.23924 19.8333C0.596119 19.7934 0.0423899 20.2824 0.00243155 20.9255C0.000973218 20.9503 0.000244141 20.9751 0.000244141 21V25.6667C0.000244141 26.311 0.522619 26.8333 1.16691 26.8333H1.23924L19.9059 25.6667C20.5218 25.6285 21.0014 25.1172 21.0002 24.5H22.1669V26.8333C22.1669 27.4776 22.6893 28 23.3336 28H25.6669V31.5C25.6669 32.1443 26.1893 32.6667 26.8336 32.6667H28.0002V33.8333C28.0002 34.4776 28.5226 35 29.1669 35C29.8112 35 30.3336 34.4776 30.3336 33.8333V32.6667H31.5002C32.1445 32.6667 32.6669 32.1443 32.6669 31.5V28H35.0002C35.6445 28 36.1669 27.4776 36.1669 26.8333V18.6667H42.0002V51.3333H30.3336C33.5536 51.3295 36.1631 48.72 36.1669 45.5V38.5C36.1669 37.8557 35.6445 37.3333 35.0002 37.3333H23.3336C22.6893 37.3333 22.1669 37.8557 22.1669 38.5V39.6667H21.0002C20.356 39.6667 19.8336 40.189 19.8336 40.8333C19.8336 41.4776 20.356 42 21.0002 42H22.1669V45.5C22.1707 48.72 24.7802 51.3295 28.0002 51.3333H18.6669C15.4469 51.3371 12.8374 53.9467 12.8336 57.1667V68.8333C12.8336 69.4776 13.356 70 14.0002 70H59.5002C60.1445 70 60.6669 69.4776 60.6669 68.8333V1.16667C60.6669 0.522375 60.1445 0 59.5002 0ZM18.6669 23.4045L2.33358 24.4253V22.2413L18.6669 23.2622V23.4045ZM24.5002 45.5V39.6667H33.8336V45.5C33.8336 47.433 32.2666 49 30.3336 49H28.0002C26.0672 49 24.5002 47.433 24.5002 45.5ZM42.0002 67.6667H15.1669V57.1667C15.1669 55.2336 16.7339 53.6667 18.6669 53.6667H42.0002V67.6667ZM30.3336 30.3333H28.0002V28H30.3336V30.3333ZM33.8336 25.6667H24.5002V18.6667H33.8336V25.6667ZM58.3336 67.6667H44.3336V17.5C44.3336 16.8557 43.8112 16.3333 43.1669 16.3333H17.5002C15.5672 16.3333 14.0002 14.7664 14.0002 12.8333V2.33333H58.3336V67.6667Z" fill="white"/>
<path d="M50.167 15.1667C53.3886 15.1667 56.0003 12.5549 56.0003 9.33333C56.0003 6.11173 53.3886 3.5 50.167 3.5C46.9453 3.5 44.3336 6.11173 44.3336 9.33333C44.3374 12.5533 46.947 15.1629 50.167 15.1667ZM50.167 8.16667H46.8816C47.3742 6.77323 48.6891 5.83946 50.167 5.83333C52.1 5.82531 53.6734 7.38588 53.6814 9.31875C53.6894 11.2518 52.1288 12.8252 50.196 12.8332C48.7075 12.8393 47.3779 11.9034 46.8816 10.4999H50.167C50.8112 10.4999 51.3336 9.97748 51.3336 9.33319C51.3336 8.6889 50.8112 8.16667 50.167 8.16667Z" fill="white"/>
<path d="M47.8335 25.6667C47.1892 25.6667 46.6669 26.189 46.6669 26.8333V29.1667C46.6669 29.8109 47.1892 30.3333 47.8335 30.3333C48.4778 30.3333 49.0002 29.8109 49.0002 29.1667V26.8333C49.0002 26.189 48.4778 25.6667 47.8335 25.6667Z" fill="white"/>
<path d="M47.8335 32.6667C47.1892 32.6667 46.6669 33.189 46.6669 33.8333V36.1667C46.6669 36.8109 47.1892 37.3333 47.8335 37.3333C48.4778 37.3333 49.0002 36.8109 49.0002 36.1667V33.8333C49.0002 33.189 48.4778 32.6667 47.8335 32.6667Z" fill="white"/>
<path d="M47.8335 39.6667C47.1892 39.6667 46.6669 40.189 46.6669 40.8333V43.1667C46.6669 43.8109 47.1892 44.3333 47.8335 44.3333C48.4778 44.3333 49.0002 43.8109 49.0002 43.1667V40.8333C49.0002 40.189 48.4778 39.6667 47.8335 39.6667Z" fill="white"/>
</svg>
