<svg width="33" height="70" viewBox="0 0 33 70" fill="none" xmlns="http://www.w3.org/2000/svg">
<path d="M16.6254 70C7.77916 70 0.58374 62.8017 0.58374 53.9583C0.58374 49.1925 2.75082 44.6221 6.41707 41.5858V10.2083C6.41707 4.57917 10.9962 0 16.6254 0C22.2546 0 26.8337 4.57917 26.8337 10.2083V41.5858C30.5 44.6221 32.6671 49.1925 32.6671 53.9583C32.6671 62.8017 25.4717 70 16.6254 70ZM16.6254 2.91667C12.6062 2.91667 9.33374 6.18917 9.33374 10.2083V42.2917C9.33374 42.7496 9.11791 43.1813 8.75332 43.4554C5.46332 45.9317 3.50041 49.8575 3.50041 53.9583C3.50041 61.1946 9.38916 67.0833 16.6254 67.0833C23.8617 67.0833 29.7504 61.1946 29.7504 53.9583C29.7504 49.8575 27.7875 45.9317 24.4975 43.4554C24.1329 43.1813 23.9171 42.7496 23.9171 42.2917V10.2083C23.9171 6.18917 20.6446 2.91667 16.6254 2.91667Z" fill="white"/>
</svg>
